<svg width="1080" height="1080" viewBox="0 0 1080 1080" fill="none" xmlns="http://www.w3.org/2000/svg">
<rect width="1080" height="1080" rx="120" fill="url(#paint0_linear_47_18)"/>
<path d="M411.991 614.834V436.151H498.294V747.328H415.435V690.805H412.193C405.17 709.038 393.488 723.692 377.145 734.767C360.938 745.842 341.152 751.38 317.787 751.38C296.988 751.38 278.687 746.653 262.885 737.198C247.083 727.744 234.725 714.306 225.811 696.883C217.032 679.46 212.575 658.594 212.44 634.283V436.151H298.743V618.886C298.878 637.254 303.808 651.773 313.532 662.443C323.257 673.113 336.29 678.447 352.632 678.447C363.032 678.447 372.756 676.084 381.805 671.357C390.854 666.495 398.147 659.337 403.685 649.882C409.357 640.428 412.126 628.746 411.991 614.834ZM681.992 752.393C658.356 752.393 636.949 746.315 617.771 734.16C598.728 721.869 583.601 703.839 572.391 680.068C561.316 656.163 555.779 626.855 555.779 592.144C555.779 556.489 561.519 526.843 572.999 503.208C584.479 479.437 599.74 461.677 618.784 449.927C637.962 438.041 658.964 432.099 681.789 432.099C699.212 432.099 713.731 435.07 725.346 441.013C737.096 446.82 746.55 454.113 753.708 462.892C761.002 471.536 766.539 480.045 770.321 488.419H772.954V332.425H859.055V747.328H773.967V697.491H770.321C766.269 706.135 760.529 714.711 753.101 723.22C745.807 731.593 736.286 738.549 724.536 744.086C712.92 749.624 698.739 752.393 681.992 752.393ZM709.341 683.715C723.253 683.715 735.003 679.933 744.592 672.37C754.316 664.671 761.744 653.934 766.877 640.158C772.144 626.382 774.778 610.242 774.778 591.739C774.778 573.236 772.212 557.164 767.079 543.523C761.947 529.882 754.519 519.347 744.795 511.919C735.07 504.491 723.253 500.777 709.341 500.777C695.16 500.777 683.207 504.626 673.483 512.324C663.759 520.023 656.398 530.692 651.401 544.333C646.404 557.974 643.905 573.776 643.905 591.739C643.905 609.837 646.404 625.842 651.401 639.753C656.533 653.529 663.894 664.334 673.483 672.167C683.207 679.866 695.16 683.715 709.341 683.715Z" fill="#0F172A"/>
<defs>
<linearGradient id="paint0_linear_47_18" x1="1.18689e-06" y1="486.5" x2="1080" y2="486.5" gradientUnits="userSpaceOnUse">
<stop stop-color="#D4EFFB"/>
<stop offset="1" stop-color="#E4E4F7"/>
</linearGradient>
</defs>
</svg>
